<svg xmlns="http://www.w3.org/2000/svg" version="1.1" xmlns:xlink="http://www.w3.org/1999/xlink" xmlns:svgjs="http://svgjs.com/svgjs" width="1440" height="560" preserveAspectRatio="none" viewBox="0 0 1440 560"><g mask="url(&quot;#SvgjsMask1197&quot;)" fill="none"><rect width="1440" height="560" x="0" y="0" fill="#0e2a47"></rect><path d="M84.18 290.6L150 328.6L150 404.6L84.18 442.6L18.36 404.6L18.36 328.6zM215.82 290.6L281.64 328.6L281.64 404.6L215.82 442.6L150 404.6L150 328.6zM281.64 -51.4L347.46 -13.4L347.46 62.6L281.64 100.6L215.82 62.6L215.82 -13.4zM281.64 404.6L347.46 442.6L347.46 518.6L281.64 556.6L215.82 518.6L215.82 442.6zM347.46 518.6L413.28 556.6L413.28 632.6L347.46 670.6L281.64 632.6L281.64 556.6zM479.1 62.6L544.92 100.6L544.92 176.6L479.1 214.6L413.28 176.6L413.28 100.6zM479.1 290.6L544.92 328.6L544.92 404.6L479.1 442.6L413.28 404.6L413.28 328.6zM413.28 404.6L479.1 442.6L479.1 518.6L413.28 556.6L347.46 518.6L347.46 442.6zM610.74 62.6L676.56 100.6L676.56 176.6L610.74 214.6L544.92 176.6L544.92 100.6zM544.92 176.6L610.74 214.6L610.74 290.6L544.92 328.6L479.1 290.6L479.1 214.6zM610.74 518.6L676.56 556.6L676.56 632.6L610.74 670.6L544.92 632.6L544.92 556.6zM742.38 62.6L808.2 100.6L808.2 176.6L742.38 214.6L676.56 176.6L676.56 100.6zM742.38 290.6L808.2 328.6L808.2 404.6L742.38 442.6L676.56 404.6L676.56 328.6zM742.38 518.6L808.2 556.6L808.2 632.6L742.38 670.6L676.56 632.6L676.56 556.6zM808.2 -51.4L874.02 -13.4L874.02 62.6L808.2 100.6L742.38 62.6L742.38 -13.4zM874.02 62.6L939.84 100.6L939.84 176.6L874.02 214.6L808.2 176.6L808.2 100.6zM874.02 290.6L939.84 328.6L939.84 404.6L874.02 442.6L808.2 404.6L808.2 328.6zM1005.66 62.6L1071.48 100.6L1071.48 176.6L1005.66 214.6L939.84 176.6L939.84 100.6zM1071.48 -51.4L1137.3 -13.4L1137.3 62.6L1071.48 100.6L1005.66 62.6L1005.66 -13.4zM1071.48 404.6L1137.3 442.6L1137.3 518.6L1071.48 556.6L1005.66 518.6L1005.66 442.6zM1203.12 176.6L1268.94 214.6L1268.94 290.6L1203.12 328.6L1137.3 290.6L1137.3 214.6zM1268.94 290.6L1334.76 328.6L1334.76 404.6L1268.94 442.6L1203.12 404.6L1203.12 328.6zM1203.12 404.6L1268.94 442.6L1268.94 518.6L1203.12 556.6L1137.3 518.6L1137.3 442.6zM1334.76 404.6L1400.58 442.6L1400.58 518.6L1334.76 556.6L1268.94 518.6L1268.94 442.6zM1400.58 518.6L1466.4 556.6L1466.4 632.6L1400.58 670.6L1334.76 632.6L1334.76 556.6z" stroke="url(#SvgjsLinearGradient1198)" stroke-width="2"></path><path d="M76.58 290.6 a7.6 7.6 0 1 0 15.2 0 a7.6 7.6 0 1 0 -15.2 0zM142.4 328.6 a7.6 7.6 0 1 0 15.2 0 a7.6 7.6 0 1 0 -15.2 0zM142.4 404.6 a7.6 7.6 0 1 0 15.2 0 a7.6 7.6 0 1 0 -15.2 0zM76.58 442.6 a7.6 7.6 0 1 0 15.2 0 a7.6 7.6 0 1 0 -15.2 0zM10.76 404.6 a7.6 7.6 0 1 0 15.2 0 a7.6 7.6 0 1 0 -15.2 0zM10.76 328.6 a7.6 7.6 0 1 0 15.2 0 a7.6 7.6 0 1 0 -15.2 0zM208.22 290.6 a7.6 7.6 0 1 0 15.2 0 a7.6 7.6 0 1 0 -15.2 0zM274.04 328.6 a7.6 7.6 0 1 0 15.2 0 a7.6 7.6 0 1 0 -15.2 0zM274.04 404.6 a7.6 7.6 0 1 0 15.2 0 a7.6 7.6 0 1 0 -15.2 0zM208.22 442.6 a7.6 7.6 0 1 0 15.2 0 a7.6 7.6 0 1 0 -15.2 0zM274.04 -51.4 a7.6 7.6 0 1 0 15.2 0 a7.6 7.6 0 1 0 -15.2 0zM339.86 -13.4 a7.6 7.6 0 1 0 15.2 0 a7.6 7.6 0 1 0 -15.2 0zM339.86 62.6 a7.6 7.6 0 1 0 15.2 0 a7.6 7.6 0 1 0 -15.2 0zM274.04 100.6 a7.6 7.6 0 1 0 15.2 0 a7.6 7.6 0 1 0 -15.2 0zM208.22 62.6 a7.6 7.6 0 1 0 15.2 0 a7.6 7.6 0 1 0 -15.2 0zM208.22 -13.4 a7.6 7.6 0 1 0 15.2 0 a7.6 7.6 0 1 0 -15.2 0zM339.86 442.6 a7.6 7.6 0 1 0 15.2 0 a7.6 7.6 0 1 0 -15.2 0zM339.86 518.6 a7.6 7.6 0 1 0 15.2 0 a7.6 7.6 0 1 0 -15.2 0zM274.04 556.6 a7.6 7.6 0 1 0 15.2 0 a7.6 7.6 0 1 0 -15.2 0zM208.22 518.6 a7.6 7.6 0 1 0 15.2 0 a7.6 7.6 0 1 0 -15.2 0zM405.68 556.6 a7.6 7.6 0 1 0 15.2 0 a7.6 7.6 0 1 0 -15.2 0zM405.68 632.6 a7.6 7.6 0 1 0 15.2 0 a7.6 7.6 0 1 0 -15.2 0zM339.86 670.6 a7.6 7.6 0 1 0 15.2 0 a7.6 7.6 0 1 0 -15.2 0zM274.04 632.6 a7.6 7.6 0 1 0 15.2 0 a7.6 7.6 0 1 0 -15.2 0zM471.5 62.6 a7.6 7.6 0 1 0 15.2 0 a7.6 7.6 0 1 0 -15.2 0zM537.32 100.6 a7.6 7.6 0 1 0 15.2 0 a7.6 7.6 0 1 0 -15.2 0zM537.32 176.6 a7.6 7.6 0 1 0 15.2 0 a7.6 7.6 0 1 0 -15.2 0zM471.5 214.6 a7.6 7.6 0 1 0 15.2 0 a7.6 7.6 0 1 0 -15.2 0zM405.68 176.6 a7.6 7.6 0 1 0 15.2 0 a7.6 7.6 0 1 0 -15.2 0zM405.68 100.6 a7.6 7.6 0 1 0 15.2 0 a7.6 7.6 0 1 0 -15.2 0zM471.5 290.6 a7.6 7.6 0 1 0 15.2 0 a7.6 7.6 0 1 0 -15.2 0zM537.32 328.6 a7.6 7.6 0 1 0 15.2 0 a7.6 7.6 0 1 0 -15.2 0zM537.32 404.6 a7.6 7.6 0 1 0 15.2 0 a7.6 7.6 0 1 0 -15.2 0zM471.5 442.6 a7.6 7.6 0 1 0 15.2 0 a7.6 7.6 0 1 0 -15.2 0zM405.68 404.6 a7.6 7.6 0 1 0 15.2 0 a7.6 7.6 0 1 0 -15.2 0zM405.68 328.6 a7.6 7.6 0 1 0 15.2 0 a7.6 7.6 0 1 0 -15.2 0zM471.5 518.6 a7.6 7.6 0 1 0 15.2 0 a7.6 7.6 0 1 0 -15.2 0zM603.14 62.6 a7.6 7.6 0 1 0 15.2 0 a7.6 7.6 0 1 0 -15.2 0zM668.96 100.6 a7.6 7.6 0 1 0 15.2 0 a7.6 7.6 0 1 0 -15.2 0zM668.96 176.6 a7.6 7.6 0 1 0 15.2 0 a7.6 7.6 0 1 0 -15.2 0zM603.14 214.6 a7.6 7.6 0 1 0 15.2 0 a7.6 7.6 0 1 0 -15.2 0zM603.14 290.6 a7.6 7.6 0 1 0 15.2 0 a7.6 7.6 0 1 0 -15.2 0zM603.14 518.6 a7.6 7.6 0 1 0 15.2 0 a7.6 7.6 0 1 0 -15.2 0zM668.96 556.6 a7.6 7.6 0 1 0 15.2 0 a7.6 7.6 0 1 0 -15.2 0zM668.96 632.6 a7.6 7.6 0 1 0 15.2 0 a7.6 7.6 0 1 0 -15.2 0zM603.14 670.6 a7.6 7.6 0 1 0 15.2 0 a7.6 7.6 0 1 0 -15.2 0zM537.32 632.6 a7.6 7.6 0 1 0 15.2 0 a7.6 7.6 0 1 0 -15.2 0zM537.32 556.6 a7.6 7.6 0 1 0 15.2 0 a7.6 7.6 0 1 0 -15.2 0zM734.78 62.6 a7.6 7.6 0 1 0 15.2 0 a7.6 7.6 0 1 0 -15.2 0zM800.6 100.6 a7.6 7.6 0 1 0 15.2 0 a7.6 7.6 0 1 0 -15.2 0zM800.6 176.6 a7.6 7.6 0 1 0 15.2 0 a7.6 7.6 0 1 0 -15.2 0zM734.78 214.6 a7.6 7.6 0 1 0 15.2 0 a7.6 7.6 0 1 0 -15.2 0zM734.78 290.6 a7.6 7.6 0 1 0 15.2 0 a7.6 7.6 0 1 0 -15.2 0zM800.6 328.6 a7.6 7.6 0 1 0 15.2 0 a7.6 7.6 0 1 0 -15.2 0zM800.6 404.6 a7.6 7.6 0 1 0 15.2 0 a7.6 7.6 0 1 0 -15.2 0zM734.78 442.6 a7.6 7.6 0 1 0 15.2 0 a7.6 7.6 0 1 0 -15.2 0zM668.96 404.6 a7.6 7.6 0 1 0 15.2 0 a7.6 7.6 0 1 0 -15.2 0zM668.96 328.6 a7.6 7.6 0 1 0 15.2 0 a7.6 7.6 0 1 0 -15.2 0zM734.78 518.6 a7.6 7.6 0 1 0 15.2 0 a7.6 7.6 0 1 0 -15.2 0zM800.6 556.6 a7.6 7.6 0 1 0 15.2 0 a7.6 7.6 0 1 0 -15.2 0zM800.6 632.6 a7.6 7.6 0 1 0 15.2 0 a7.6 7.6 0 1 0 -15.2 0zM734.78 670.6 a7.6 7.6 0 1 0 15.2 0 a7.6 7.6 0 1 0 -15.2 0zM800.6 -51.4 a7.6 7.6 0 1 0 15.2 0 a7.6 7.6 0 1 0 -15.2 0zM866.42 -13.4 a7.6 7.6 0 1 0 15.2 0 a7.6 7.6 0 1 0 -15.2 0zM866.42 62.6 a7.6 7.6 0 1 0 15.2 0 a7.6 7.6 0 1 0 -15.2 0zM734.78 -13.4 a7.6 7.6 0 1 0 15.2 0 a7.6 7.6 0 1 0 -15.2 0zM932.24 100.6 a7.6 7.6 0 1 0 15.2 0 a7.6 7.6 0 1 0 -15.2 0zM932.24 176.6 a7.6 7.6 0 1 0 15.2 0 a7.6 7.6 0 1 0 -15.2 0zM866.42 214.6 a7.6 7.6 0 1 0 15.2 0 a7.6 7.6 0 1 0 -15.2 0zM866.42 290.6 a7.6 7.6 0 1 0 15.2 0 a7.6 7.6 0 1 0 -15.2 0zM932.24 328.6 a7.6 7.6 0 1 0 15.2 0 a7.6 7.6 0 1 0 -15.2 0zM932.24 404.6 a7.6 7.6 0 1 0 15.2 0 a7.6 7.6 0 1 0 -15.2 0zM866.42 442.6 a7.6 7.6 0 1 0 15.2 0 a7.6 7.6 0 1 0 -15.2 0zM998.06 62.6 a7.6 7.6 0 1 0 15.2 0 a7.6 7.6 0 1 0 -15.2 0zM1063.88 100.6 a7.6 7.6 0 1 0 15.2 0 a7.6 7.6 0 1 0 -15.2 0zM1063.88 176.6 a7.6 7.6 0 1 0 15.2 0 a7.6 7.6 0 1 0 -15.2 0zM998.06 214.6 a7.6 7.6 0 1 0 15.2 0 a7.6 7.6 0 1 0 -15.2 0zM1063.88 -51.4 a7.6 7.6 0 1 0 15.2 0 a7.6 7.6 0 1 0 -15.2 0zM1129.7 -13.4 a7.6 7.6 0 1 0 15.2 0 a7.6 7.6 0 1 0 -15.2 0zM1129.7 62.6 a7.6 7.6 0 1 0 15.2 0 a7.6 7.6 0 1 0 -15.2 0zM998.06 -13.4 a7.6 7.6 0 1 0 15.2 0 a7.6 7.6 0 1 0 -15.2 0zM1063.88 404.6 a7.6 7.6 0 1 0 15.2 0 a7.6 7.6 0 1 0 -15.2 0zM1129.7 442.6 a7.6 7.6 0 1 0 15.2 0 a7.6 7.6 0 1 0 -15.2 0zM1129.7 518.6 a7.6 7.6 0 1 0 15.2 0 a7.6 7.6 0 1 0 -15.2 0zM1063.88 556.6 a7.6 7.6 0 1 0 15.2 0 a7.6 7.6 0 1 0 -15.2 0zM998.06 518.6 a7.6 7.6 0 1 0 15.2 0 a7.6 7.6 0 1 0 -15.2 0zM998.06 442.6 a7.6 7.6 0 1 0 15.2 0 a7.6 7.6 0 1 0 -15.2 0zM1195.52 176.6 a7.6 7.6 0 1 0 15.2 0 a7.6 7.6 0 1 0 -15.2 0zM1261.34 214.6 a7.6 7.6 0 1 0 15.2 0 a7.6 7.6 0 1 0 -15.2 0zM1261.34 290.6 a7.6 7.6 0 1 0 15.2 0 a7.6 7.6 0 1 0 -15.2 0zM1195.52 328.6 a7.6 7.6 0 1 0 15.2 0 a7.6 7.6 0 1 0 -15.2 0zM1129.7 290.6 a7.6 7.6 0 1 0 15.2 0 a7.6 7.6 0 1 0 -15.2 0zM1129.7 214.6 a7.6 7.6 0 1 0 15.2 0 a7.6 7.6 0 1 0 -15.2 0zM1327.16 328.6 a7.6 7.6 0 1 0 15.2 0 a7.6 7.6 0 1 0 -15.2 0zM1327.16 404.6 a7.6 7.6 0 1 0 15.2 0 a7.6 7.6 0 1 0 -15.2 0zM1261.34 442.6 a7.6 7.6 0 1 0 15.2 0 a7.6 7.6 0 1 0 -15.2 0zM1195.52 404.6 a7.6 7.6 0 1 0 15.2 0 a7.6 7.6 0 1 0 -15.2 0zM1261.34 518.6 a7.6 7.6 0 1 0 15.2 0 a7.6 7.6 0 1 0 -15.2 0zM1195.52 556.6 a7.6 7.6 0 1 0 15.2 0 a7.6 7.6 0 1 0 -15.2 0zM1392.98 442.6 a7.6 7.6 0 1 0 15.2 0 a7.6 7.6 0 1 0 -15.2 0zM1392.98 518.6 a7.6 7.6 0 1 0 15.2 0 a7.6 7.6 0 1 0 -15.2 0zM1327.16 556.6 a7.6 7.6 0 1 0 15.2 0 a7.6 7.6 0 1 0 -15.2 0zM1458.8 556.6 a7.6 7.6 0 1 0 15.2 0 a7.6 7.6 0 1 0 -15.2 0zM1458.8 632.6 a7.6 7.6 0 1 0 15.2 0 a7.6 7.6 0 1 0 -15.2 0zM1392.98 670.6 a7.6 7.6 0 1 0 15.2 0 a7.6 7.6 0 1 0 -15.2 0zM1327.16 632.6 a7.6 7.6 0 1 0 15.2 0 a7.6 7.6 0 1 0 -15.2 0z" fill="url(#SvgjsLinearGradient1198)"></path><path d="M44.52 72.41L86.95 96.91L86.95 145.91L44.52 170.41L2.08 145.91L2.08 96.91zM44.52 219.41L86.95 243.91L86.95 292.91L44.52 317.41L2.08 292.91L2.08 243.91zM2.08 292.91L44.52 317.41L44.52 366.41L2.08 390.91L-40.36 366.41L-40.36 317.41zM2.08 439.91L44.52 464.41L44.52 513.41L2.08 537.91L-40.36 513.41L-40.36 464.41zM86.95 439.91L129.39 464.41L129.39 513.41L86.95 537.91L44.52 513.41L44.52 464.41zM214.26 513.41L256.7 537.91L256.7 586.91L214.26 611.41L171.83 586.91L171.83 537.91zM256.7 586.91L299.14 611.41L299.14 660.41L256.7 684.91L214.26 660.41L214.26 611.41zM341.57 -1.09L384.01 23.41L384.01 72.41L341.57 96.91L299.14 72.41L299.14 23.41zM384.01 219.41L426.44 243.91L426.44 292.91L384.01 317.41L341.57 292.91L341.57 243.91zM384.01 366.41L426.44 390.91L426.44 439.91L384.01 464.41L341.57 439.91L341.57 390.91zM341.57 439.91L384.01 464.41L384.01 513.41L341.57 537.91L299.14 513.41L299.14 464.41zM384.01 513.41L426.44 537.91L426.44 586.91L384.01 611.41L341.57 586.91L341.57 537.91zM426.44 292.91L468.88 317.41L468.88 366.41L426.44 390.91L384.01 366.41L384.01 317.41zM426.44 586.91L468.88 611.41L468.88 660.41L426.44 684.91L384.01 660.41L384.01 611.41zM511.32 292.91L553.75 317.41L553.75 366.41L511.32 390.91L468.88 366.41L468.88 317.41zM596.19 -1.09L638.63 23.41L638.63 72.41L596.19 96.91L553.75 72.41L553.75 23.41zM596.19 145.91L638.63 170.41L638.63 219.41L596.19 243.91L553.75 219.41L553.75 170.41zM638.63 219.41L681.06 243.91L681.06 292.91L638.63 317.41L596.19 292.91L596.19 243.91zM596.19 439.91L638.63 464.41L638.63 513.41L596.19 537.91L553.75 513.41L553.75 464.41zM638.63 513.41L681.06 537.91L681.06 586.91L638.63 611.41L596.19 586.91L596.19 537.91zM723.5 72.41L765.94 96.91L765.94 145.91L723.5 170.41L681.06 145.91L681.06 96.91zM681.06 292.91L723.5 317.41L723.5 366.41L681.06 390.91L638.63 366.41L638.63 317.41zM723.5 366.41L765.94 390.91L765.94 439.91L723.5 464.41L681.06 439.91L681.06 390.91zM723.5 513.41L765.94 537.91L765.94 586.91L723.5 611.41L681.06 586.91L681.06 537.91zM765.94 292.91L808.37 317.41L808.37 366.41L765.94 390.91L723.5 366.41L723.5 317.41zM808.37 513.41L850.81 537.91L850.81 586.91L808.37 611.41L765.94 586.91L765.94 537.91zM893.25 72.41L935.68 96.91L935.68 145.91L893.25 170.41L850.81 145.91L850.81 96.91zM850.81 145.91L893.25 170.41L893.25 219.41L850.81 243.91L808.37 219.41L808.37 170.41zM893.25 219.41L935.68 243.91L935.68 292.91L893.25 317.41L850.81 292.91L850.81 243.91zM893.25 366.41L935.68 390.91L935.68 439.91L893.25 464.41L850.81 439.91L850.81 390.91zM850.81 439.91L893.25 464.41L893.25 513.41L850.81 537.91L808.37 513.41L808.37 464.41zM850.81 586.91L893.25 611.41L893.25 660.41L850.81 684.91L808.37 660.41L808.37 611.41zM978.12 72.41L1020.55 96.91L1020.55 145.91L978.12 170.41L935.68 145.91L935.68 96.91zM978.12 366.41L1020.55 390.91L1020.55 439.91L978.12 464.41L935.68 439.91L935.68 390.91zM935.68 439.91L978.12 464.41L978.12 513.41L935.68 537.91L893.25 513.41L893.25 464.41zM935.68 586.91L978.12 611.41L978.12 660.41L935.68 684.91L893.25 660.41L893.25 611.41zM1062.99 72.41L1105.43 96.91L1105.43 145.91L1062.99 170.41L1020.55 145.91L1020.55 96.91zM1020.55 292.91L1062.99 317.41L1062.99 366.41L1020.55 390.91L978.12 366.41L978.12 317.41zM1020.55 439.91L1062.99 464.41L1062.99 513.41L1020.55 537.91L978.12 513.41L978.12 464.41zM1062.99 513.41L1105.43 537.91L1105.43 586.91L1062.99 611.41L1020.55 586.91L1020.55 537.91zM1105.43 145.91L1147.86 170.41L1147.86 219.41L1105.43 243.91L1062.99 219.41L1062.99 170.41zM1105.43 439.91L1147.86 464.41L1147.86 513.41L1105.43 537.91L1062.99 513.41L1062.99 464.41zM1147.86 513.41L1190.3 537.91L1190.3 586.91L1147.86 611.41L1105.43 586.91L1105.43 537.91zM1105.43 586.91L1147.86 611.41L1147.86 660.41L1105.43 684.91L1062.99 660.41L1062.99 611.41zM1232.74 219.41L1275.17 243.91L1275.17 292.91L1232.74 317.41L1190.3 292.91L1190.3 243.91zM1190.3 586.91L1232.74 611.41L1232.74 660.41L1190.3 684.91L1147.86 660.41L1147.86 611.41zM1317.61 72.41L1360.05 96.91L1360.05 145.91L1317.61 170.41L1275.17 145.91L1275.17 96.91zM1275.17 145.91L1317.61 170.41L1317.61 219.41L1275.17 243.91L1232.74 219.41L1232.74 170.41zM1317.61 219.41L1360.05 243.91L1360.05 292.91L1317.61 317.41L1275.17 292.91L1275.17 243.91zM1275.17 439.91L1317.61 464.41L1317.61 513.41L1275.17 537.91L1232.74 513.41L1232.74 464.41zM1360.05 -1.09L1402.48 23.41L1402.48 72.41L1360.05 96.91L1317.61 72.41L1317.61 23.41zM1360.05 145.91L1402.48 170.41L1402.48 219.41L1360.05 243.91L1317.61 219.41L1317.61 170.41zM1360.05 292.91L1402.48 317.41L1402.48 366.41L1360.05 390.91L1317.61 366.41L1317.61 317.41zM1402.48 366.41L1444.92 390.91L1444.92 439.91L1402.48 464.41L1360.05 439.91L1360.05 390.91z" stroke="rgba(6, 80, 156, 0.93)" stroke-width="2"></path></g><defs><mask id="SvgjsMask1197"><rect width="1440" height="560" fill="#ffffff"></rect></mask><linearGradient x1="220.03199999999998" y1="-220.02399999999997" x2="1219.9679999999998" y2="780.024" gradientUnits="userSpaceOnUse" id="SvgjsLinearGradient1198"><stop stop-color="rgba(158, 0, 129, 1)" offset="0"></stop><stop stop-color="#03305d" offset="1"></stop></linearGradient></defs></svg>