<?xml version="1.0" standalone="no"?>
<svg xmlns:xlink="http://www.w3.org/1999/xlink" id="wave" style="transform:rotate(0deg); transition: 0.3s" viewBox="0 0 1440 490" version="1.1" xmlns="http://www.w3.org/2000/svg"><defs><linearGradient id="sw-gradient-0" x1="0" x2="0" y1="1" y2="0"><stop stop-color="rgba(243, 106, 62, 1)" offset="0%"/><stop stop-color="rgba(255, 179, 11, 1)" offset="100%"/></linearGradient></defs><path style="transform:translate(0, 0px); opacity:1" fill="url(#sw-gradient-0)" d="M0,441L18.5,441C36.9,441,74,441,111,424.7C147.7,408,185,376,222,310.3C258.5,245,295,147,332,163.3C369.2,180,406,310,443,343C480,376,517,310,554,269.5C590.8,229,628,212,665,245C701.5,278,738,359,775,351.2C812.3,343,849,245,886,236.8C923.1,229,960,310,997,285.8C1033.8,261,1071,131,1108,81.7C1144.6,33,1182,65,1218,114.3C1255.4,163,1292,229,1329,269.5C1366.2,310,1403,327,1440,334.8C1476.9,343,1514,343,1551,334.8C1587.7,327,1625,310,1662,302.2C1698.5,294,1735,294,1772,302.2C1809.2,310,1846,327,1883,351.2C1920,376,1957,408,1994,416.5C2030.8,425,2068,408,2105,343C2141.5,278,2178,163,2215,114.3C2252.3,65,2289,82,2326,147C2363.1,212,2400,327,2437,351.2C2473.8,376,2511,310,2548,302.2C2584.6,294,2622,343,2640,367.5L2658.5,392L2658.5,490L2640,490C2621.5,490,2585,490,2548,490C2510.8,490,2474,490,2437,490C2400,490,2363,490,2326,490C2289.2,490,2252,490,2215,490C2178.5,490,2142,490,2105,490C2067.7,490,2031,490,1994,490C1956.9,490,1920,490,1883,490C1846.2,490,1809,490,1772,490C1735.4,490,1698,490,1662,490C1624.6,490,1588,490,1551,490C1513.8,490,1477,490,1440,490C1403.1,490,1366,490,1329,490C1292.3,490,1255,490,1218,490C1181.5,490,1145,490,1108,490C1070.8,490,1034,490,997,490C960,490,923,490,886,490C849.2,490,812,490,775,490C738.5,490,702,490,665,490C627.7,490,591,490,554,490C516.9,490,480,490,443,490C406.2,490,369,490,332,490C295.4,490,258,490,222,490C184.6,490,148,490,111,490C73.8,490,37,490,18,490L0,490Z"/></svg>